<mxfile host="app.diagrams.net" modified="2024-04-27T11:45:31.916Z" agent="Mozilla/5.0 (Windows NT 10.0; Win64; x64) AppleWebKit/537.36 (KHTML, like Gecko) Chrome/123.0.0.0 Safari/537.36" version="24.3.1" etag="U5OmC-e3AOd9Om7yJP1I" type="github">
  <diagram name="페이지-1" id="CoSt_HR49lXktYblnPgQ">
    <mxGraphModel>
      <root>
        <mxCell id="0" />
        <mxCell id="1" parent="0" />
      </root>
    </mxGraphModel>
  </diagram>
</mxfile>
